<svg width="29" height="41" viewBox="0 0 29 41" fill="none" xmlns="http://www.w3.org/2000/svg">
<ellipse cx="14.5" cy="15.4219" rx="7" ry="7.5" fill="white"/>
<path d="M28.4657 14.2917C28.0051 7.02103 21.6168 0.921875 14.4905 0.921875H14.3875C10.6918 0.953431 7.21825 2.46022 4.60475 5.1691C1.95692 7.90755 0.5 11.5404 0.5 15.3981C0.5 27.7434 13.1728 40.0827 13.7115 40.6014C13.9336 40.8154 14.2178 40.9219 14.501 40.9219C14.7841 40.9219 15.0673 40.8154 15.2885 40.6014C15.8416 40.0669 28.5 27.7414 28.5 15.4031C28.5 15.0313 28.4895 14.6615 28.4657 14.2927V14.2917ZM14.501 21.9065C11.0293 21.9065 8.2051 18.9856 8.2051 15.3952C8.2051 11.8047 11.0293 8.88381 14.501 8.88381C17.9726 8.88381 20.7949 11.8047 20.7949 15.3952C20.7949 18.9856 17.9707 21.9065 14.501 21.9065Z" fill="#CADAE4"/>
</svg>
