<?xml version="1.0" encoding="UTF-8" standalone="no"?>
<!-- Uploaded to: SVG Repo, www.svgrepo.com, Generator: SVG Repo Mixer Tools -->

<svg
   width="533.33331"
   height="533.33667"
   viewBox="0 0 15.999999 16.0001"
   fill="none"
   version="1.1"
   id="svg2"
   sodipodi:docname="table-delete-row.svg"
   inkscape:version="1.3.2 (091e20ef0f, 2023-11-25, custom)"
   xmlns:inkscape="http://www.inkscape.org/namespaces/inkscape"
   xmlns:sodipodi="http://sodipodi.sourceforge.net/DTD/sodipodi-0.dtd"
   xmlns="http://www.w3.org/2000/svg"
   xmlns:svg="http://www.w3.org/2000/svg">
  <defs
     id="defs2" />
  <sodipodi:namedview
     id="namedview2"
     pagecolor="#ffffff"
     bordercolor="#000000"
     borderopacity="0.25"
     inkscape:showpageshadow="2"
     inkscape:pageopacity="0.0"
     inkscape:pagecheckerboard="0"
     inkscape:deskcolor="#d1d1d1"
     inkscape:zoom="0.86875"
     inkscape:cx="265.89928"
     inkscape:cy="266.47482"
     inkscape:window-width="1536"
     inkscape:window-height="928"
     inkscape:window-x="0"
     inkscape:window-y="0"
     inkscape:window-maximized="1"
     inkscape:current-layer="svg2" />
  <path
     fill-rule="evenodd"
     clip-rule="evenodd"
     d="M 16,0 H 0 V 16 H 4 V 14.5 H 1.5 V 9 h 13 v 5.5 H 12 V 16 h 4 z M 1.5,4 V 1.5 h 3 V 4 Z M 6,4 V 1.5 h 4 L 9.9999,4 Z M 11.4999,4 11.5,1.5 h 3 V 4 Z m 0,1.5 H 14.5 v 2 H 11.4998 Z M 4.5,7.5 h -3 v -2 h 3 z m 1.5,0 v -2 h 3.9999 l -10e-5,2 z"
     fill="#1f2328"
     id="path1" />
  <path
     fill-rule="evenodd"
     clip-rule="evenodd"
     d="M 8,14.7804 9.2197,16.0001 10.2803,14.9395 9.0606,13.7197 10.2802,12.5001 9.2196,11.4395 8,12.6591 6.7803,11.4395 5.71968,12.5001 6.9393,13.7197 5.71967,14.9394 6.7803,16.0001 Z"
     fill="#1F2328"
     id="path2"
     style="fill:#ff0000;fill-opacity:1" />
</svg>
