<?xml version="1.0" encoding="UTF-8" standalone="no"?>
<!-- Uploaded to: SVG Repo, www.svgrepo.com, Generator: SVG Repo Mixer Tools -->

<svg
   fill="#000000"
   width="800px"
   height="800px"
   viewBox="0 0 14 14"
   role="img"
   focusable="false"
   aria-hidden="true"
   version="1.1"
   id="svg2"
   sodipodi:docname="gui-table-col-after-svgrepo-com.svg"
   inkscape:version="1.3.2 (091e20ef0f, 2023-11-25, custom)"
   xmlns:inkscape="http://www.inkscape.org/namespaces/inkscape"
   xmlns:sodipodi="http://sodipodi.sourceforge.net/DTD/sodipodi-0.dtd"
   xmlns="http://www.w3.org/2000/svg"
   xmlns:svg="http://www.w3.org/2000/svg">
  <defs
     id="defs2" />
  <sodipodi:namedview
     id="namedview2"
     pagecolor="#ffffff"
     bordercolor="#000000"
     borderopacity="0.25"
     inkscape:showpageshadow="2"
     inkscape:pageopacity="0.0"
     inkscape:pagecheckerboard="0"
     inkscape:deskcolor="#d1d1d1"
     inkscape:zoom="0.86875"
     inkscape:cx="399.42446"
     inkscape:cy="400"
     inkscape:window-width="1536"
     inkscape:window-height="928"
     inkscape:window-x="0"
     inkscape:window-y="0"
     inkscape:window-maximized="1"
     inkscape:current-layer="svg2" />
  <path
     d="M.52539062.00195313C.23546962.00195313 0 .17085937 0 .38085938V13.623047c0 .2101.23546962.378906.52539062.378906H5.3164062c.2900214 0 .5234375-.168806.5234376-.378906V.38085938c0-.21-.2334162-.37890626-.5234376-.37890626H.52539062zM1.2089844 1.0605469h3.4199218v3.2148437H1.2089844V1.0605469zm0 4.2832031h3.4199218v3.2148438H1.2089844V5.34375zm0 4.2832031h3.4199218V12.84375H1.2089844V9.6269531z"
     id="path1" />
  <path
     fill="green"
     d="M9.969294 11.0336q-.2639283 0-.4656736-.1915l-.3880946-.3882q-.1964467-.1966-.1964467-.4709 0-.2795.1964467-.4658l1.5159882-1.5217H6.988903q-.269027 0-.4370814-.194-.1682543-.1941-.1682543-.4684v-.6625q0-.2743.1682543-.4684.1680544-.1941.4370814-.1941h3.642611L9.1155258 4.4865q-.1964467-.1863-.1964467-.4658 0-.2795.1964467-.4658l.3880946-.3882q.1966467-.1966.4656736-.1966.274126 0 .470872.1966l3.368286 3.3693Q14 6.7172 14 7.0018q0 .2795-.191548.471l-3.368286 3.3693q-.201845.1915-.470872.1915z"
     id="path2"
     style="fill:#0086be;fill-opacity:1" />
</svg>
