<?xml version="1.0" encoding="UTF-8" standalone="no"?>
<!-- Uploaded to: SVG Repo, www.svgrepo.com, Generator: SVG Repo Mixer Tools -->

<svg
   fill="#000000"
   width="800"
   height="800"
   viewBox="0 0 14 14"
   role="img"
   focusable="false"
   aria-hidden="true"
   version="1.1"
   id="svg2"
   sodipodi:docname="table-move-row-up.svg"
   inkscape:version="1.3.2 (091e20ef0f, 2023-11-25, custom)"
   xmlns:inkscape="http://www.inkscape.org/namespaces/inkscape"
   xmlns:sodipodi="http://sodipodi.sourceforge.net/DTD/sodipodi-0.dtd"
   xmlns="http://www.w3.org/2000/svg"
   xmlns:svg="http://www.w3.org/2000/svg">
  <defs
     id="defs2" />
  <sodipodi:namedview
     id="namedview2"
     pagecolor="#ffffff"
     bordercolor="#000000"
     borderopacity="0.25"
     inkscape:showpageshadow="2"
     inkscape:pageopacity="0.0"
     inkscape:pagecheckerboard="0"
     inkscape:deskcolor="#d1d1d1"
     inkscape:zoom="0.86875"
     inkscape:cx="399.42446"
     inkscape:cy="400"
     inkscape:window-width="1536"
     inkscape:window-height="928"
     inkscape:window-x="0"
     inkscape:window-y="0"
     inkscape:window-maximized="1"
     inkscape:current-layer="svg2" />
  <path
     d="M 0,0.525391 C 0,0.23547 0.16890625,0 0.37890626,0 H 13.621094 C 13.831194,0 14,0.23547 14,0.525391 v 4.7910152 c 0,0.2900214 -0.168806,0.5234375 -0.378906,0.5234376 H 0.37890626 C 0.16890626,5.8398438 0,5.6064276 0,5.3164062 Z M 1.0585937,1.208984 V 4.6289062 H 4.2734374 V 1.208984 Z m 4.2832031,0 V 4.6289062 H 8.5566406 V 1.208984 Z m 4.2832031,0 V 4.6289062 H 12.841797 V 1.208984 Z"
     id="path1" />
  <path
     fill="green"
     d="m 11.031647,9.969294 q 0,-0.2639283 -0.1915,-0.4656736 l -0.3882,-0.3880946 q -0.1966,-0.1964467 -0.4709002,-0.1964467 -0.2795,0 -0.4658,0.1964467 l -1.5217,1.5159882 V 6.988903 q 0,-0.269027 -0.194,-0.4370814 -0.1941,-0.1682543 -0.4684,-0.1682543 h -0.6625 q -0.2743,0 -0.4684,0.1682543 -0.1941,0.1680544 -0.1941,0.4370814 v 3.642611 l -1.5216,-1.5159882 q -0.1863,-0.1964467 -0.4658,-0.1964467 -0.2795,0 -0.4658,0.1964467 l -0.3882,0.3880946 q -0.1966,0.1966467 -0.1966,0.4656736 0,0.274126 0.1966,0.470872 l 3.3693,3.368286 Q 6.7152468,14 6.9998468,14 q 0.2795,0 0.471,-0.191548 l 3.3693002,-3.368286 q 0.1915,-0.201845 0.1915,-0.470872 z"
     id="path2"
     style="fill:#0086be;fill-opacity:1" />
</svg>
